<mxfile host="app.diagrams.net" modified="2022-06-16T12:31:47.407Z" agent="5.0 (Windows NT 10.0; Win64; x64) AppleWebKit/537.36 (KHTML, like Gecko) Chrome/102.0.5005.124 Safari/537.36 Edg/102.0.1245.41" etag="XgUSs9pIb-38_kXiuf3s" version="20.0.1" type="github">
  <diagram id="R2lEEEUBdFMjLlhIrx00" name="Page-1">
    <mxGraphModel dx="1422" dy="762" grid="1" gridSize="10" guides="1" tooltips="1" connect="1" arrows="1" fold="1" page="1" pageScale="1" pageWidth="850" pageHeight="1100" math="0" shadow="0" extFonts="Permanent Marker^https://fonts.googleapis.com/css?family=Permanent+Marker">
      <root>
        <mxCell id="0" />
        <mxCell id="1" parent="0" />
        <mxCell id="AYfZdi-WlGziGCiwb_5d-76" value="" style="endArrow=none;html=1;rounded=0;exitX=0.5;exitY=0;exitDx=0;exitDy=0;entryX=0.5;entryY=1;entryDx=0;entryDy=0;" edge="1" parent="1" source="AYfZdi-WlGziGCiwb_5d-7" target="AYfZdi-WlGziGCiwb_5d-3">
          <mxGeometry relative="1" as="geometry">
            <mxPoint x="300" y="390" as="sourcePoint" />
            <mxPoint x="340" y="360" as="targetPoint" />
          </mxGeometry>
        </mxCell>
        <mxCell id="AYfZdi-WlGziGCiwb_5d-3" value="회원" style="rounded=1;whiteSpace=wrap;html=1;" vertex="1" parent="1">
          <mxGeometry x="280" y="300" width="80" height="40" as="geometry" />
        </mxCell>
        <mxCell id="AYfZdi-WlGziGCiwb_5d-4" value="&lt;u&gt;회원아이디&lt;/u&gt;" style="ellipse;whiteSpace=wrap;html=1;" vertex="1" parent="1">
          <mxGeometry x="190" y="400" width="80" height="30" as="geometry" />
        </mxCell>
        <mxCell id="AYfZdi-WlGziGCiwb_5d-6" value="성명" style="ellipse;whiteSpace=wrap;html=1;" vertex="1" parent="1">
          <mxGeometry x="340" y="370" width="80" height="30" as="geometry" />
        </mxCell>
        <mxCell id="AYfZdi-WlGziGCiwb_5d-7" value="신용카드 정보" style="ellipse;whiteSpace=wrap;html=1;" vertex="1" parent="1">
          <mxGeometry x="290" y="400" width="90" height="37" as="geometry" />
        </mxCell>
        <mxCell id="AYfZdi-WlGziGCiwb_5d-13" value="" style="endArrow=none;html=1;rounded=0;exitX=0.5;exitY=0;exitDx=0;exitDy=0;entryX=0.5;entryY=1;entryDx=0;entryDy=0;" edge="1" parent="1" source="AYfZdi-WlGziGCiwb_5d-21" target="AYfZdi-WlGziGCiwb_5d-7">
          <mxGeometry width="50" height="50" relative="1" as="geometry">
            <mxPoint x="590" y="557" as="sourcePoint" />
            <mxPoint x="330" y="437" as="targetPoint" />
          </mxGeometry>
        </mxCell>
        <mxCell id="AYfZdi-WlGziGCiwb_5d-15" value="&lt;u&gt;신용카드 번호&lt;/u&gt;" style="ellipse;whiteSpace=wrap;html=1;" vertex="1" parent="1">
          <mxGeometry x="240" y="467" width="80" height="30" as="geometry" />
        </mxCell>
        <mxCell id="AYfZdi-WlGziGCiwb_5d-18" value="" style="endArrow=none;html=1;rounded=0;exitX=0.5;exitY=0;exitDx=0;exitDy=0;entryX=0.5;entryY=1;entryDx=0;entryDy=0;" edge="1" parent="1" source="AYfZdi-WlGziGCiwb_5d-15" target="AYfZdi-WlGziGCiwb_5d-7">
          <mxGeometry width="50" height="50" relative="1" as="geometry">
            <mxPoint x="590" y="557" as="sourcePoint" />
            <mxPoint x="330" y="437" as="targetPoint" />
          </mxGeometry>
        </mxCell>
        <mxCell id="AYfZdi-WlGziGCiwb_5d-21" value="유효기간" style="ellipse;whiteSpace=wrap;html=1;" vertex="1" parent="1">
          <mxGeometry x="340" y="467" width="80" height="30" as="geometry" />
        </mxCell>
        <mxCell id="AYfZdi-WlGziGCiwb_5d-23" value="비행기" style="rounded=1;whiteSpace=wrap;html=1;" vertex="1" parent="1">
          <mxGeometry x="110" y="93" width="80" height="40" as="geometry" />
        </mxCell>
        <mxCell id="AYfZdi-WlGziGCiwb_5d-24" value="&lt;u&gt;비행기번호&lt;/u&gt;" style="ellipse;whiteSpace=wrap;html=1;" vertex="1" parent="1">
          <mxGeometry x="50" y="153" width="80" height="30" as="geometry" />
        </mxCell>
        <mxCell id="AYfZdi-WlGziGCiwb_5d-26" value="출발날짜" style="ellipse;whiteSpace=wrap;html=1;" vertex="1" parent="1">
          <mxGeometry x="100" y="190" width="80" height="30" as="geometry" />
        </mxCell>
        <mxCell id="AYfZdi-WlGziGCiwb_5d-33" value="좌석" style="rounded=1;whiteSpace=wrap;html=1;" vertex="1" parent="1">
          <mxGeometry x="350" y="30" width="80" height="40" as="geometry" />
        </mxCell>
        <mxCell id="AYfZdi-WlGziGCiwb_5d-34" value="&lt;u&gt;좌석번호&lt;/u&gt;" style="ellipse;whiteSpace=wrap;html=1;" vertex="1" parent="1">
          <mxGeometry x="370" y="150" width="80" height="30" as="geometry" />
        </mxCell>
        <mxCell id="AYfZdi-WlGziGCiwb_5d-36" value="등급 정보" style="ellipse;whiteSpace=wrap;html=1;" vertex="1" parent="1">
          <mxGeometry x="450" y="133" width="80" height="30" as="geometry" />
        </mxCell>
        <mxCell id="AYfZdi-WlGziGCiwb_5d-37" value="좌석" style="rounded=1;whiteSpace=wrap;html=1;" vertex="1" parent="1">
          <mxGeometry x="360" y="37.5" width="60" height="25" as="geometry" />
        </mxCell>
        <mxCell id="AYfZdi-WlGziGCiwb_5d-50" value="" style="shape=link;html=1;rounded=0;entryX=0;entryY=0.5;entryDx=0;entryDy=0;exitX=1;exitY=0.5;exitDx=0;exitDy=0;startArrow=none;" edge="1" parent="1" source="AYfZdi-WlGziGCiwb_5d-39" target="AYfZdi-WlGziGCiwb_5d-33">
          <mxGeometry relative="1" as="geometry">
            <mxPoint x="-10" y="198" as="sourcePoint" />
            <mxPoint x="150" y="198" as="targetPoint" />
          </mxGeometry>
        </mxCell>
        <mxCell id="AYfZdi-WlGziGCiwb_5d-52" value="N" style="resizable=0;html=1;align=right;verticalAlign=bottom;" connectable="0" vertex="1" parent="AYfZdi-WlGziGCiwb_5d-50">
          <mxGeometry x="1" relative="1" as="geometry" />
        </mxCell>
        <mxCell id="AYfZdi-WlGziGCiwb_5d-39" value="존재" style="rhombus;whiteSpace=wrap;html=1;" vertex="1" parent="1">
          <mxGeometry x="240" y="70" width="70" height="30" as="geometry" />
        </mxCell>
        <mxCell id="AYfZdi-WlGziGCiwb_5d-65" value="" style="endArrow=none;html=1;rounded=0;exitX=1;exitY=0.5;exitDx=0;exitDy=0;entryX=0;entryY=0.5;entryDx=0;entryDy=0;" edge="1" parent="1" source="AYfZdi-WlGziGCiwb_5d-23" target="AYfZdi-WlGziGCiwb_5d-39">
          <mxGeometry relative="1" as="geometry">
            <mxPoint x="-10" y="198" as="sourcePoint" />
            <mxPoint x="150" y="198" as="targetPoint" />
          </mxGeometry>
        </mxCell>
        <mxCell id="AYfZdi-WlGziGCiwb_5d-66" value="1" style="resizable=0;html=1;align=left;verticalAlign=bottom;" connectable="0" vertex="1" parent="AYfZdi-WlGziGCiwb_5d-65">
          <mxGeometry x="-1" relative="1" as="geometry" />
        </mxCell>
        <mxCell id="AYfZdi-WlGziGCiwb_5d-68" value="" style="endArrow=none;html=1;rounded=0;exitX=0.5;exitY=0;exitDx=0;exitDy=0;entryX=0.5;entryY=1;entryDx=0;entryDy=0;startArrow=none;" edge="1" parent="1" source="AYfZdi-WlGziGCiwb_5d-38" target="AYfZdi-WlGziGCiwb_5d-33">
          <mxGeometry relative="1" as="geometry">
            <mxPoint x="350" y="-27" as="sourcePoint" />
            <mxPoint x="510" y="-27" as="targetPoint" />
          </mxGeometry>
        </mxCell>
        <mxCell id="AYfZdi-WlGziGCiwb_5d-70" value="1" style="resizable=0;html=1;align=right;verticalAlign=bottom;" connectable="0" vertex="1" parent="AYfZdi-WlGziGCiwb_5d-68">
          <mxGeometry x="1" relative="1" as="geometry">
            <mxPoint x="-15" y="30" as="offset" />
          </mxGeometry>
        </mxCell>
        <mxCell id="AYfZdi-WlGziGCiwb_5d-38" value="예약" style="rhombus;whiteSpace=wrap;html=1;" vertex="1" parent="1">
          <mxGeometry x="285" y="220" width="70" height="30" as="geometry" />
        </mxCell>
        <mxCell id="AYfZdi-WlGziGCiwb_5d-71" value="" style="endArrow=none;html=1;rounded=0;exitX=0.5;exitY=0;exitDx=0;exitDy=0;entryX=0.5;entryY=1;entryDx=0;entryDy=0;" edge="1" parent="1" source="AYfZdi-WlGziGCiwb_5d-3" target="AYfZdi-WlGziGCiwb_5d-38">
          <mxGeometry relative="1" as="geometry">
            <mxPoint x="320" y="400" as="sourcePoint" />
            <mxPoint x="320" y="300" as="targetPoint" />
          </mxGeometry>
        </mxCell>
        <mxCell id="AYfZdi-WlGziGCiwb_5d-72" value="1" style="resizable=0;html=1;align=left;verticalAlign=bottom;" connectable="0" vertex="1" parent="AYfZdi-WlGziGCiwb_5d-71">
          <mxGeometry x="-1" relative="1" as="geometry" />
        </mxCell>
        <mxCell id="AYfZdi-WlGziGCiwb_5d-74" value="" style="endArrow=none;html=1;rounded=0;exitX=0.5;exitY=0;exitDx=0;exitDy=0;entryX=0.5;entryY=1;entryDx=0;entryDy=0;" edge="1" parent="1" source="AYfZdi-WlGziGCiwb_5d-5" target="AYfZdi-WlGziGCiwb_5d-3">
          <mxGeometry relative="1" as="geometry">
            <mxPoint x="250" y="190" as="sourcePoint" />
            <mxPoint x="410" y="190" as="targetPoint" />
          </mxGeometry>
        </mxCell>
        <mxCell id="AYfZdi-WlGziGCiwb_5d-75" value="" style="endArrow=none;html=1;rounded=0;exitX=0.5;exitY=0;exitDx=0;exitDy=0;entryX=0.5;entryY=1;entryDx=0;entryDy=0;" edge="1" parent="1" source="AYfZdi-WlGziGCiwb_5d-4" target="AYfZdi-WlGziGCiwb_5d-3">
          <mxGeometry relative="1" as="geometry">
            <mxPoint x="290" y="380" as="sourcePoint" />
            <mxPoint x="330" y="350" as="targetPoint" />
          </mxGeometry>
        </mxCell>
        <mxCell id="AYfZdi-WlGziGCiwb_5d-5" value="비밀번호&lt;span style=&quot;color: rgba(0, 0, 0, 0); font-family: monospace; font-size: 0px; text-align: start;&quot;&gt;%3CmxGraphModel%3E%3Croot%3E%3CmxCell%20id%3D%220%22%2F%3E%3CmxCell%20id%3D%221%22%20parent%3D%220%22%2F%3E%3CmxCell%20id%3D%222%22%20value%3D%22%ED%9A%8C%EC%9B%90%EC%95%84%EC%9D%B4%EB%94%94%22%20style%3D%22ellipse%3BwhiteSpace%3Dwrap%3Bhtml%3D1%3B%22%20vertex%3D%221%22%20parent%3D%221%22%3E%3CmxGeometry%20x%3D%22260%22%20y%3D%22250%22%20width%3D%2280%22%20height%3D%2230%22%20as%3D%22geometry%22%2F%3E%3C%2FmxCell%3E%3C%2Froot%3E%3C%2FmxGraphModel%3E&lt;/span&gt;" style="ellipse;whiteSpace=wrap;html=1;" vertex="1" parent="1">
          <mxGeometry x="250" y="370" width="80" height="30" as="geometry" />
        </mxCell>
        <mxCell id="AYfZdi-WlGziGCiwb_5d-77" value="" style="endArrow=none;html=1;rounded=0;exitX=0.5;exitY=1;exitDx=0;exitDy=0;entryX=0.5;entryY=0;entryDx=0;entryDy=0;" edge="1" parent="1" source="AYfZdi-WlGziGCiwb_5d-3" target="AYfZdi-WlGziGCiwb_5d-6">
          <mxGeometry relative="1" as="geometry">
            <mxPoint x="310" y="400" as="sourcePoint" />
            <mxPoint x="350" y="370" as="targetPoint" />
          </mxGeometry>
        </mxCell>
        <mxCell id="AYfZdi-WlGziGCiwb_5d-78" value="" style="endArrow=none;html=1;rounded=0;exitX=0.5;exitY=1;exitDx=0;exitDy=0;entryX=0.5;entryY=0;entryDx=0;entryDy=0;" edge="1" parent="1" source="AYfZdi-WlGziGCiwb_5d-33" target="AYfZdi-WlGziGCiwb_5d-34">
          <mxGeometry relative="1" as="geometry">
            <mxPoint x="420" y="373" as="sourcePoint" />
            <mxPoint x="460" y="343" as="targetPoint" />
          </mxGeometry>
        </mxCell>
        <mxCell id="AYfZdi-WlGziGCiwb_5d-79" value="" style="endArrow=none;html=1;rounded=0;exitX=0.5;exitY=1;exitDx=0;exitDy=0;entryX=0.5;entryY=0;entryDx=0;entryDy=0;" edge="1" parent="1" source="AYfZdi-WlGziGCiwb_5d-33" target="AYfZdi-WlGziGCiwb_5d-36">
          <mxGeometry relative="1" as="geometry">
            <mxPoint x="430" y="103" as="sourcePoint" />
            <mxPoint x="370" y="43" as="targetPoint" />
          </mxGeometry>
        </mxCell>
        <mxCell id="AYfZdi-WlGziGCiwb_5d-83" value="" style="endArrow=none;html=1;rounded=0;exitX=0.5;exitY=1;exitDx=0;exitDy=0;entryX=0.5;entryY=0;entryDx=0;entryDy=0;" edge="1" parent="1" source="AYfZdi-WlGziGCiwb_5d-23" target="AYfZdi-WlGziGCiwb_5d-24">
          <mxGeometry relative="1" as="geometry">
            <mxPoint x="180" y="180" as="sourcePoint" />
            <mxPoint x="340" y="180" as="targetPoint" />
          </mxGeometry>
        </mxCell>
        <mxCell id="AYfZdi-WlGziGCiwb_5d-84" value="" style="endArrow=none;html=1;rounded=0;exitX=0.5;exitY=1;exitDx=0;exitDy=0;entryX=0.5;entryY=0;entryDx=0;entryDy=0;" edge="1" parent="1" source="AYfZdi-WlGziGCiwb_5d-23" target="AYfZdi-WlGziGCiwb_5d-26">
          <mxGeometry relative="1" as="geometry">
            <mxPoint x="160" y="143" as="sourcePoint" />
            <mxPoint x="150" y="193" as="targetPoint" />
          </mxGeometry>
        </mxCell>
        <mxCell id="AYfZdi-WlGziGCiwb_5d-85" value="" style="endArrow=none;html=1;rounded=0;exitX=0.5;exitY=1;exitDx=0;exitDy=0;entryX=0.5;entryY=0;entryDx=0;entryDy=0;" edge="1" parent="1" source="AYfZdi-WlGziGCiwb_5d-23" target="AYfZdi-WlGziGCiwb_5d-25">
          <mxGeometry relative="1" as="geometry">
            <mxPoint x="160" y="143" as="sourcePoint" />
            <mxPoint x="180" y="243" as="targetPoint" />
          </mxGeometry>
        </mxCell>
        <mxCell id="AYfZdi-WlGziGCiwb_5d-25" value="출발시간 정보" style="ellipse;whiteSpace=wrap;html=1;" vertex="1" parent="1">
          <mxGeometry x="150" y="153" width="80" height="30" as="geometry" />
        </mxCell>
      </root>
    </mxGraphModel>
  </diagram>
</mxfile>
